<svg width="180" height="180" viewBox="0 0 180 180" fill="none" xmlns="http://www.w3.org/2000/svg">
  <defs>
    <linearGradient id="bg" x1="0" y1="0" x2="180" y2="180" gradientUnits="userSpaceOnUse">
      <stop offset="0%" stop-color="#f472b6"/>
      <stop offset="50%" stop-color="#ec4899"/>
      <stop offset="100%" stop-color="#f43f5e"/>
    </linearGradient>
    <linearGradient id="shine" x1="0" y1="0" x2="0" y2="180" gradientUnits="userSpaceOnUse">
      <stop offset="0%" stop-color="white" stop-opacity="0.22"/>
      <stop offset="55%" stop-color="white" stop-opacity="0"/>
    </linearGradient>
  </defs>
  <rect width="180" height="180" rx="42" fill="url(#bg)"/>
  <rect width="180" height="180" rx="42" fill="url(#shine)"/>
  <!-- 4-pointed AI sparkle — main -->
  <path d="M90 8C81 51 51 81 8 90C51 99 81 129 90 172C99 129 129 99 172 90C129 81 99 51 90 8Z" fill="white"/>
  <!-- small accent sparkle -->
  <path d="M146 22C143.5 34 134 43.5 122 46C134 48.5 143.5 58 146 70C148.5 58 158 48.5 170 46C158 43.5 148.5 34 146 22Z" fill="white" fill-opacity="0.65"/>
</svg>
